<svg xmlns="http://www.w3.org/2000/svg" width="413" height="52" viewBox="0 0 413 52" fill="none">
  <path d="M0.806641 10.4161C0.806641 4.69824 5.44246 0.0200195 11.1085 0.0200195H42.014C47.68 0.0200195 52.3158 4.69824 52.3158 10.4161V50.2923C52.3158 51.2577 51.5799 52.0002 50.6234 52.0002H43.7064C42.7498 52.0002 42.014 51.2577 42.014 50.2923V12.124C42.014 11.1586 41.2781 10.4161 40.3215 10.4161H12.8009C11.8443 10.4161 11.1085 11.1586 11.1085 12.124V50.2923C11.1085 51.2577 10.3726 52.0002 9.41603 52.0002H2.49908C1.54249 52.0002 0.806641 51.2577 0.806641 50.2923V10.4161Z" fill="#E5E5E5"/>
  <path d="M99.1748 10.4161H71.6542C70.6975 10.4161 69.9617 11.1586 69.9617 12.124V29.5002C69.9617 30.4656 70.6975 31.2081 71.6542 31.2081H99.1748C100.131 31.2081 100.867 30.4656 100.867 29.5002V12.124C100.867 11.1586 100.131 10.4161 99.1748 10.4161ZM59.6599 50.2923V10.4161C59.6599 4.69824 64.2957 0.0200195 69.9617 0.0200195H100.867C106.533 0.0200195 111.169 4.69824 111.169 10.4161V31.2081C111.169 36.926 106.533 41.6042 100.867 41.6042H71.6542C70.6975 41.6042 69.9617 42.3468 69.9617 43.3121V50.2923C69.9617 51.2577 69.2259 52.0002 68.2693 52.0002H61.3523C60.3957 52.0002 59.6599 51.2577 59.6599 50.2923Z" fill="#E5E5E5"/>
  <path d="M118.585 41.6042V10.4161C118.585 4.69824 123.221 0.0200195 128.887 0.0200195H159.792C165.458 0.0200195 170.094 4.69824 170.094 10.4161V41.6042C170.094 47.322 165.458 52.0002 159.792 52.0002H128.887C123.221 52.0002 118.585 47.322 118.585 41.6042ZM130.579 41.6042H158.1C159.056 41.6042 159.792 40.8616 159.792 39.8963V12.124C159.792 11.1586 159.056 10.4161 158.1 10.4161H130.579C129.623 10.4161 128.887 11.1586 128.887 12.124V39.8963C128.887 40.8616 129.623 41.6042 130.579 41.6042Z" fill="#E5E5E5"/>
  <path d="M177.438 41.6042V10.4161C177.438 4.69824 182.074 0.0200195 187.74 0.0200195H222.104C223.061 0.0200195 223.796 0.762593 223.796 1.72794V8.70814C223.796 9.67349 223.061 10.4161 222.104 10.4161H189.432C188.476 10.4161 187.74 11.1586 187.74 12.124V19.1042C187.74 20.0695 188.476 20.8121 189.432 20.8121H222.104C223.061 20.8121 223.796 21.5547 223.796 22.52V29.5002C223.796 30.4656 223.061 31.2081 222.104 31.2081H189.432C188.476 31.2081 187.74 31.9507 187.74 32.9161V39.8963C187.74 40.8616 188.476 41.6042 189.432 41.6042H222.104C223.061 41.6042 223.796 42.3468 223.796 43.3121V50.2923C223.796 51.2577 223.061 52.0002 222.104 52.0002H187.74C182.074 52.0002 177.438 47.322 177.438 41.6042Z" fill="#E5E5E5"/>
  <path d="M231.261 50.2923V1.72794C231.261 0.762593 231.997 0.0200195 232.954 0.0200195H239.871C240.827 0.0200195 241.563 0.762593 241.563 1.72794V19.1042C241.563 20.0695 242.299 20.8121 243.255 20.8121H249.657C250.761 20.8121 251.791 20.3666 252.454 19.4755L268.053 1.35665C268.716 0.465567 269.746 0.0200195 270.85 0.0200195H281.078C281.372 0.0200195 281.667 0.168537 281.74 0.465567C281.887 0.762593 281.814 1.05962 281.667 1.35665L261.652 24.6735C260.989 25.4161 260.989 26.6042 261.652 27.3468L281.667 50.6636C281.814 50.9606 281.887 51.2577 281.74 51.5547C281.667 51.8517 281.372 52.0002 281.078 52.0002H270.85C269.746 52.0002 268.716 51.5547 268.053 50.6636L252.454 32.5448C251.791 31.6537 250.761 31.2081 249.657 31.2081H243.255C242.299 31.2081 241.563 31.9507 241.563 32.9161V50.2923C241.563 51.2577 240.827 52.0002 239.871 52.0002H232.954C231.997 52.0002 231.261 51.2577 231.261 50.2923Z" fill="#E5E5E5"/>
  <path d="M286.306 1.72794C286.306 0.762593 287.042 0.0200195 287.998 0.0200195H336.123C337.079 0.0200195 337.815 0.762593 337.815 1.72794V8.70814C337.815 9.67349 337.079 10.4161 336.123 10.4161H318.904C317.947 10.4161 317.211 11.1586 317.211 12.124V50.2923C317.211 51.2577 316.476 52.0002 315.519 52.0002H308.602C307.645 52.0002 306.91 51.2577 306.91 50.2923V12.124C306.91 11.1586 306.174 10.4161 305.217 10.4161H287.998C287.042 10.4161 286.306 9.67349 286.306 8.70814V1.72794Z" fill="#E5E5E5"/>
  <path d="M384.746 20.8121H357.225C356.269 20.8121 355.533 21.5547 355.533 22.52V39.8963C355.533 40.8616 356.269 41.6042 357.225 41.6042H384.746C385.702 41.6042 386.438 40.8616 386.438 39.8963V22.52C386.438 21.5547 385.702 20.8121 384.746 20.8121ZM345.231 41.6042V1.72794C345.231 0.762593 345.967 0.0200195 346.923 0.0200195H353.84C354.797 0.0200195 355.533 0.762593 355.533 1.72794V8.70814C355.533 9.67349 356.269 10.4161 357.225 10.4161H386.438C392.104 10.4161 396.74 15.0943 396.74 20.8121V41.6042C396.74 47.322 392.104 52.0002 386.438 52.0002H355.533C349.867 52.0002 345.231 47.322 345.231 41.6042ZM401.891 50.2923V1.72794C401.891 0.762593 402.627 0.0200195 403.583 0.0200195H410.5C411.457 0.0200195 412.193 0.762593 412.193 1.72794V50.2923C412.193 51.2577 411.457 52.0002 410.5 52.0002H403.583C402.627 52.0002 401.891 51.2577 401.891 50.2923Z" fill="#E5E5E5"/>
</svg>