<svg width="95" height="18" viewBox="0 0 95 18" fill="none" xmlns="http://www.w3.org/2000/svg">
<path d="M4.32 8.984H8.492L12.076 18H7.764L4.32 8.984ZM8.492 8.984H4.32L7.764 0.191999H12.076L8.492 8.984ZM0.232 0.191999H4.236V18H0.232V0.191999ZM22.9291 11.868V14.78H15.1731V11.868H22.9291ZM25.7011 18H21.6691L19.0091 4.336L16.3771 18H12.4011L16.4611 0.191999H21.5571L25.7011 18ZM33.2722 14.36V11.14C33.2722 10.8973 33.2162 10.7293 33.1042 10.636C32.9922 10.524 32.7962 10.468 32.5162 10.468H30.0522C28.8202 10.468 27.9616 10.188 27.4762 9.628C26.9909 9.04933 26.7482 8.284 26.7482 7.332V3.3C26.7482 2.32933 27.0189 1.57333 27.5602 1.032C28.1016 0.471999 29.0069 0.191999 30.2762 0.191999H33.6922C34.9616 0.191999 35.8669 0.471999 36.4082 1.032C36.9496 1.57333 37.2202 2.32933 37.2202 3.3V5.596H33.2162V3.832C33.2162 3.57067 33.1602 3.39333 33.0482 3.3C32.9362 3.188 32.7402 3.132 32.4602 3.132H31.5082C31.2282 3.132 31.0322 3.188 30.9202 3.3C30.8082 3.39333 30.7522 3.57067 30.7522 3.832V6.968C30.7522 7.21067 30.8082 7.388 30.9202 7.5C31.0322 7.59333 31.2282 7.64 31.5082 7.64H33.9162C35.1669 7.64 36.0349 7.91067 36.5202 8.452C37.0242 8.99333 37.2762 9.74933 37.2762 10.72V14.892C37.2762 15.8627 37.0056 16.628 36.4642 17.188C35.9229 17.7293 35.0176 18 33.7482 18H30.3602C29.0909 18 28.1762 17.7293 27.6162 17.188C27.0749 16.628 26.8042 15.8627 26.8042 14.892V12.596H30.8082V14.36C30.8082 14.6027 30.8642 14.78 30.9762 14.892C31.0882 15.004 31.2842 15.06 31.5642 15.06H32.5162C32.7962 15.06 32.9922 15.004 33.1042 14.892C33.2162 14.78 33.2722 14.6027 33.2722 14.36ZM48.8509 11.868V14.78H41.0949V11.868H48.8509ZM51.6229 18H47.5909L44.9309 4.336L42.2989 18H38.3229L42.3829 0.191999H47.4789L51.6229 18ZM55.1341 1.368H59.1381V18H55.1341V1.368ZM62.4141 0.191999V3.132H51.8861V0.191999H62.4141ZM67.8669 8.984H72.0389L75.6229 18H71.3109L67.8669 8.984ZM72.0389 8.984H67.8669L71.3109 0.191999H75.6229L72.0389 8.984ZM63.7789 0.191999H67.7829V18H63.7789V0.191999ZM77.1519 0.191999H81.1559V18H77.1519V0.191999ZM91.2158 0.191999H94.8838V18H91.2998L87.4078 7.36V18H83.7398V0.191999H87.3798L91.2158 10.804V0.191999Z" fill="black"/>
</svg>
