<svg xmlns="http://www.w3.org/2000/svg" width="343" height="63" viewBox="0 0 343 63" fill="none">
  <path d="M14.8141 31.1038H29.9327L42.9204 63H27.2945L14.8141 31.1038ZM29.9327 31.1038H14.8141L27.2945 0H42.9204L29.9327 31.1038ZM0 0H14.5097V63H0V0Z" fill="#E5E5E5"/>
  <path d="M82.2498 41.3066V51.6085H54.1435V41.3066H82.2498ZM92.295 63H77.6838L68.0445 14.6604L58.5066 63H44.0983L58.811 0H77.2779L92.295 63Z" fill="#E5E5E5"/>
  <path d="M119.731 50.1226V38.7311C119.731 37.8726 119.528 37.2783 119.123 36.9481C118.717 36.5519 118.006 36.3538 116.992 36.3538H108.063C103.598 36.3538 100.487 35.3632 98.7278 33.3821C96.9691 31.3349 96.0897 28.6274 96.0897 25.2594V10.9953C96.0897 7.56132 97.0705 4.88679 99.0322 2.9717C100.994 0.990567 104.275 0 108.874 0H121.253C125.853 0 129.134 0.990567 131.096 2.9717C133.057 4.88679 134.038 7.56132 134.038 10.9953V19.1179H119.528V12.8774C119.528 11.9528 119.326 11.3255 118.92 10.9953C118.514 10.5991 117.804 10.4009 116.789 10.4009H113.339C112.324 10.4009 111.614 10.5991 111.208 10.9953C110.802 11.3255 110.599 11.9528 110.599 12.8774V23.9717C110.599 24.8302 110.802 25.4575 111.208 25.8538C111.614 26.184 112.324 26.3491 113.339 26.3491H122.065C126.597 26.3491 129.743 27.3066 131.502 29.2217C133.328 31.1368 134.241 33.8113 134.241 37.2453V52.0047C134.241 55.4387 133.26 58.1462 131.299 60.1274C129.337 62.0425 126.056 63 121.456 63H109.179C104.579 63 101.264 62.0425 99.2352 60.1274C97.2735 58.1462 96.2926 55.4387 96.2926 52.0047V43.8821H110.802V50.1226C110.802 50.9811 111.005 51.6085 111.411 52.0047C111.817 52.4009 112.527 52.5991 113.542 52.5991H116.992C118.006 52.5991 118.717 52.4009 119.123 52.0047C119.528 51.6085 119.731 50.9811 119.731 50.1226Z" fill="#E5E5E5"/>
  <path d="M176.186 41.3066V51.6085H148.079V41.3066H176.186ZM186.231 63H171.62L161.98 14.6604L152.443 63H138.034L152.747 0H171.214L186.231 63Z" fill="#E5E5E5"/>
  <path d="M198.955 4.16038H213.464V63H198.955V4.16038ZM225.336 0V10.4009H187.185V0H225.336Z" fill="#E5E5E5"/>
  <path d="M245.096 31.1038H260.214L273.202 63H257.576L245.096 31.1038ZM260.214 31.1038H245.096L257.576 0H273.202L260.214 31.1038ZM230.282 0H244.791V63H230.282V0Z" fill="#E5E5E5"/>
  <path d="M278.743 0H293.253V63H278.743V0Z" fill="#E5E5E5"/>
  <path d="M329.708 0H343V63H330.012L315.908 25.3585V63H302.616V0H315.807L329.708 37.5425V0Z" fill="#E5E5E5"/>
</svg>