<svg xmlns="http://www.w3.org/2000/svg" width="722" height="131" viewBox="0 0 722 131" fill="none">
  <path d="M31.1831 64.6761H63.0069L90.3455 131H57.4538L31.1831 64.6761ZM63.0069 64.6761H31.1831L57.4538 0H90.3455L63.0069 64.6761ZM0 0H30.5423V131H0V0Z" fill="#E5E5E5"/>
  <path d="M173.132 85.8915V107.313H113.97V85.8915H173.132ZM194.277 131H163.521L143.231 30.4843L123.154 131H92.8251L123.795 0H162.667L194.277 131Z" fill="#E5E5E5"/>
  <path d="M252.029 104.223V80.5362C252.029 78.7511 251.602 77.5152 250.748 76.8286C249.894 76.0047 248.398 75.5928 246.263 75.5928H227.467C218.07 75.5928 211.52 73.533 207.818 69.4135C204.116 65.1567 202.265 59.5267 202.265 52.5236V22.8632C202.265 15.7227 204.329 10.1614 208.458 6.17925C212.588 2.05975 219.494 0 229.176 0H255.233C264.916 0 271.821 2.05975 275.951 6.17925C280.08 10.1614 282.145 15.7227 282.145 22.8632V39.7531H251.602V26.7767C251.602 24.8543 251.175 23.5498 250.321 22.8632C249.466 22.0393 247.971 21.6274 245.835 21.6274H238.574C236.438 21.6274 234.943 22.0393 234.088 22.8632C233.234 23.5498 232.807 24.8543 232.807 26.7767V49.8459C232.807 51.631 233.234 52.9355 234.088 53.7594C234.943 54.446 236.438 54.7893 238.574 54.7893H256.942C266.482 54.7893 273.103 56.7804 276.805 60.7626C280.649 64.7448 282.572 70.3061 282.572 77.4465V108.137C282.572 115.277 280.507 120.907 276.378 125.027C272.249 129.009 265.343 131 255.66 131H229.817C220.134 131 213.157 129.009 208.886 125.027C204.756 120.907 202.692 115.277 202.692 108.137V91.2469H233.234V104.223C233.234 106.008 233.661 107.313 234.516 108.137C235.37 108.961 236.865 109.373 239.001 109.373H246.263C248.398 109.373 249.894 108.961 250.748 108.137C251.602 107.313 252.029 106.008 252.029 104.223Z" fill="#E5E5E5"/>
  <path d="M370.863 85.8915V107.313H311.701V85.8915H370.863ZM392.008 131H361.252L340.962 30.4843L320.885 131H290.556L321.526 0H360.398L392.008 131Z" fill="#E5E5E5"/>
  <path d="M418.791 8.65094H449.333V131H418.791V8.65094ZM474.322 0V21.6274H394.015V0H474.322Z" fill="#E5E5E5"/>
  <path d="M515.916 64.6761H547.74L575.078 131H542.187L515.916 64.6761ZM547.74 64.6761H515.916L542.187 0H575.078L547.74 64.6761ZM484.733 0H515.275V131H484.733V0Z" fill="#E5E5E5"/>
  <path d="M586.742 0H617.284V131H586.742V0Z" fill="#E5E5E5"/>
  <path d="M694.021 0H722V131H694.661L664.973 52.7296V131H636.994V0H664.76L694.021 78.0645V0Z" fill="#E5E5E5"/>
</svg>