<svg xmlns="http://www.w3.org/2000/svg" width="1196" height="217" viewBox="0 0 1196 217" fill="none">
  <path d="M51.6551 107.135H104.372L149.658 217H95.1727L51.6551 107.135ZM104.372 107.135H51.6551L95.1727 0H149.658L104.372 107.135ZM0 0H50.5937V217H0V0Z" fill="#E5E5E5"/>
  <path d="M286.795 142.278V177.763H188.792V142.278H286.795ZM321.822 217H270.874L237.263 50.4969L204.006 217H153.766L205.067 0H269.459L321.822 217Z" fill="#E5E5E5"/>
  <path d="M417.489 172.645V133.407C417.489 130.45 416.782 128.403 415.366 127.266C413.951 125.901 411.474 125.219 407.936 125.219H376.802C361.235 125.219 350.385 121.807 344.252 114.983C338.12 107.931 335.053 98.6054 335.053 87.0047V37.8726C335.053 26.0446 338.473 16.8323 345.314 10.2359C352.154 3.41195 363.593 0 379.632 0H422.796C438.835 0 450.275 3.41195 457.115 10.2359C463.955 16.8323 467.375 26.0446 467.375 37.8726V65.8506H416.782V44.3553C416.782 41.1709 416.074 39.01 414.659 37.8726C413.243 36.5079 410.767 35.8255 407.229 35.8255H395.2C391.662 35.8255 389.185 36.5079 387.77 37.8726C386.355 39.01 385.647 41.1709 385.647 44.3553V82.5692C385.647 85.5262 386.355 87.6871 387.77 89.0519C389.185 90.1892 391.662 90.7579 395.2 90.7579H425.627C441.43 90.7579 452.398 94.0561 458.53 100.653C464.899 107.249 468.083 116.461 468.083 128.289V179.127C468.083 190.955 464.663 200.281 457.823 207.105C450.982 213.702 439.543 217 423.504 217H380.694C364.655 217 353.097 213.702 346.021 207.105C339.181 200.281 335.761 190.955 335.761 179.127V151.149H386.355V172.645C386.355 175.602 387.062 177.763 388.477 179.127C389.893 180.492 392.369 181.175 395.907 181.175H407.936C411.474 181.175 413.951 180.492 415.366 179.127C416.782 177.763 417.489 175.602 417.489 172.645Z" fill="#E5E5E5"/>
  <path d="M614.338 142.278V177.763H516.335V142.278H614.338ZM649.365 217H598.417L564.806 50.4969L531.549 217H481.309L532.61 0H597.002L649.365 217Z" fill="#E5E5E5"/>
  <path d="M693.731 14.3302H744.325V217H693.731V14.3302ZM785.72 0V35.8255H652.69V0H785.72Z" fill="#E5E5E5"/>
  <path d="M854.62 107.135H907.336L952.623 217H898.137L854.62 107.135ZM907.336 107.135H854.62L898.137 0H952.623L907.336 107.135ZM802.965 0H853.558V217H802.965V0Z" fill="#E5E5E5"/>
  <path d="M971.944 0H1022.54V217H971.944V0Z" fill="#E5E5E5"/>
  <path d="M1149.65 0H1196V217H1150.71L1101.53 87.3459V217H1055.19V0H1101.18L1149.65 129.313V0Z" fill="#E5E5E5"/>
</svg>