<svg xmlns="http://www.w3.org/2000/svg" width="33" height="33" viewBox="0 0 33 33" fill="none">
  <g clip-path="url(#clip0_436_115)">
    <path fill-rule="evenodd" clip-rule="evenodd" d="M27.194 6.08984C28.6899 5.45999 30.2936 6.7249 30.0294 8.32635L26.9097 27.2418C26.6088 29.0656 24.6057 30.1121 22.9325 29.2033C21.5323 28.4427 19.455 27.2722 17.5828 26.0489C16.6479 25.438 13.7853 23.4791 14.1372 22.0847C14.438 20.8925 19.2504 16.4129 22.0004 13.7488C23.0806 12.7023 22.5886 12.0978 21.3129 13.0613C18.1482 15.4515 13.0673 19.0855 11.3871 20.1082C9.90468 21.0105 9.13066 21.1645 8.20742 21.0105C6.52149 20.7296 4.95843 20.2945 3.68232 19.7655C1.95756 19.0505 2.04158 16.6803 3.68115 15.9901L27.194 6.08984Z" fill="black"/>
  </g>
  <defs>
    <clipPath id="clip0_436_115">
      <rect width="33" height="33" fill="white" transform="translate(0 -0.000976562)"/>
    </clipPath>
  </defs>
</svg>