<svg xmlns="http://www.w3.org/2000/svg" width="18" height="19" viewBox="0 0 18 19" fill="none">
	<g clip-path="url(#clip0_521_16)">
		<path fill-rule="evenodd" clip-rule="evenodd" d="M14.8335 3.82244C15.6494 3.47889 16.5241 4.16884 16.38 5.04235L14.6784 15.3599C14.5143 16.3547 13.4217 16.9255 12.509 16.4298C11.7453 16.0149 10.6122 15.3765 9.59096 14.7092C9.08104 14.376 7.51961 13.3075 7.71154 12.5469C7.87564 11.8966 10.5006 9.45319 12.0006 8.00006C12.5898 7.42926 12.3214 7.09951 11.6256 7.62506C9.89936 8.92879 7.12797 10.911 6.2115 11.4688C5.40291 11.961 4.98072 12.045 4.47713 11.961C3.55753 11.8077 2.70496 11.5704 2.0089 11.2819C1.06812 10.8919 1.11394 9.59906 2.00826 9.22256L14.8335 3.82244Z" fill="#EAEAEA"/>
	</g>
	<defs>
		<clipPath id="clip0_521_16">
		<rect width="18" height="18" fill="white" transform="translate(0 0.5)"/>
		</clipPath>
	</defs>
</svg>