<svg xmlns="http://www.w3.org/2000/svg" width="30" height="30" viewBox="0 0 30 30" fill="none">
  <g clip-path="url(#clip0_527_8)">
    <path fill-rule="evenodd" clip-rule="evenodd" d="M23.1659 21.1253C22.8222 22.0982 21.4559 22.9032 20.3662 23.1386C19.6203 23.2969 18.6476 23.4222 15.3702 22.064C11.6891 20.5389 6.57746 15.1064 6.57746 11.4913C6.57746 9.65086 7.63858 7.50784 9.4941 7.50784C10.3869 7.50784 10.5837 7.52525 10.8775 8.23001C11.2213 9.06033 12.0599 11.106 12.1597 11.3158C12.5719 12.176 11.7404 12.6796 11.1371 13.4286C10.9446 13.654 10.7264 13.8978 10.9703 14.3172C11.2127 14.7281 12.0513 16.0949 13.2836 17.192C14.8753 18.6101 16.166 19.0628 16.6281 19.2554C16.9718 19.3981 17.3826 19.3649 17.6336 19.0966C17.9516 18.7528 18.3467 18.1824 18.7489 17.6203C19.0327 17.218 19.3936 17.1677 19.7715 17.3104C20.0268 17.3988 23.2715 18.9057 23.4084 19.1468C23.5096 19.3223 23.5097 20.1523 23.1659 21.1253ZM14.8667 0.985352H14.8596C6.99676 0.985352 0.601562 7.38249 0.601562 15.2476C0.601562 18.3663 1.60706 21.2597 3.31711 23.6065L1.54003 28.9061L7.02103 27.1547C9.2759 28.647 11.9672 29.5099 14.8667 29.5099C22.7295 29.5099 29.1261 23.1128 29.1261 15.2476C29.1261 7.38249 22.7295 0.985352 14.8667 0.985352Z" fill="black"/>
  </g>
  <defs>
    <clipPath id="clip0_527_8">
      <rect width="28.5246" height="28.5246" fill="white" transform="translate(0.601562 0.985352)"/>
    </clipPath>
  </defs>
</svg>