<svg width="746" height="161" viewBox="0 0 746 161" fill="none" xmlns="http://www.w3.org/2000/svg">
<path d="M0.5 128.8V32.2C0.5 14.49 14.99 -1.09673e-05 32.7 -1.09673e-05H129.3C147.01 -1.09673e-05 161.5 14.49 161.5 32.2V128.8C161.5 146.51 147.01 161 129.3 161H32.7C14.99 161 0.5 146.51 0.5 128.8ZM37.99 128.8H124.01C127 128.8 129.3 126.5 129.3 123.51V37.49C129.3 34.5 127 32.2 124.01 32.2H37.99C35 32.2 32.7 34.5 32.7 37.49V123.51C32.7 126.5 35 128.8 37.99 128.8ZM184.455 128.8V32.2C184.455 14.49 198.945 -1.09673e-05 216.655 -1.09673e-05H313.255C330.965 -1.09673e-05 345.455 14.49 345.455 32.2V128.8C345.455 146.51 330.965 161 313.255 161H216.655C198.945 161 184.455 146.51 184.455 128.8ZM221.945 128.8H307.965C310.955 128.8 313.255 126.5 313.255 123.51V37.49C313.255 34.5 310.955 32.2 307.965 32.2H221.945C218.955 32.2 216.655 34.5 216.655 37.49V123.51C216.655 126.5 218.955 128.8 221.945 128.8ZM368.41 128.8V32.2C368.41 14.49 382.9 -1.09673e-05 400.61 -1.09673e-05H497.21C514.92 -1.09673e-05 529.41 14.49 529.41 32.2V128.8C529.41 146.51 514.92 161 497.21 161H400.61C382.9 161 368.41 146.51 368.41 128.8ZM405.9 128.8H491.92C494.91 128.8 497.21 126.5 497.21 123.51V37.49C497.21 34.5 494.91 32.2 491.92 32.2H405.9C402.91 32.2 400.61 34.5 400.61 37.49V123.51C400.61 126.5 402.91 128.8 405.9 128.8ZM584.565 -1.09673e-05H600.665C618.605 -1.09673e-05 632.865 14.49 632.865 32.2V48.3C632.865 66.01 618.375 80.5 600.665 80.5H584.565C566.855 80.5 552.365 66.01 552.365 48.3V32.2C552.365 14.49 566.855 -1.09673e-05 584.565 -1.09673e-05ZM573.755 161C570.765 161 569.845 158.93 571.685 156.63C612.165 102.58 646.435 56.81 685.995 4.36999C687.835 1.83999 691.515 -1.09673e-05 694.505 -1.09673e-05H723.945C726.935 -1.09673e-05 727.855 2.06999 726.245 4.36999C685.765 58.19 651.265 103.96 611.935 156.63C610.095 158.93 606.185 161 603.195 161H573.755ZM589.855 32.2C586.865 32.2 584.565 34.5 584.565 37.49V43.01C584.565 46 586.865 48.3 589.855 48.3H595.375C598.365 48.3 600.665 46 600.665 43.01V37.49C600.665 34.5 598.365 32.2 595.375 32.2H589.855ZM697.265 80.5H713.365C731.075 80.5 745.565 94.76 745.565 112.7V128.8C745.565 146.51 731.075 161 713.365 161H697.265C679.325 161 665.065 146.51 665.065 128.8V112.7C665.065 94.76 679.325 80.5 697.265 80.5ZM702.555 112.7C699.565 112.7 697.265 115 697.265 117.99V123.51C697.265 126.5 699.565 128.8 702.555 128.8H708.075C710.835 128.8 713.365 126.5 713.365 123.51V117.99C713.365 115 710.835 112.7 708.075 112.7H702.555Z" fill="black"/>
</svg>
